# xmcd
#
# Track frame offsets:
#	150
#	16710
#	41453
#	59131
#	83003
#	100869
#	114961
#	132931
#	151923
#	168318
#	184347
#	207027
#	230064
#
# Disc length: 3343 seconds
#
# Revision: 1
# Processed by: cddbd v1.5.2PL0 Copyright (c) Steve Scherf et al.
# Submitted via: audiograbber 1.83.01
#
DISCID=a10d0d0d
DTITLE=Rahsaan Patterson - Heroes and Gods
DYEAR=2019
DGENRE=R&B
TTITLE0=Catch Me When I Fall
TTITLE1=Wonderful Star
TTITLE2=Silly, Love, Fool
TTITLE3=Rock and Roll
TTITLE4=Break It Down
TTITLE5=Don't You Know That
TTITLE6=Sent From Heaven
TTITLE7=Wide Awake
TTITLE8=Soldier
TTITLE9=Oxford Blues
TTITLE10=Sweet Memories
TTITLE11=I Try
TTITLE12=Heroes and Gods
EXTD=
EXTT0=
EXTT1=
EXTT2=
EXTT3=
EXTT4=
EXTT5=
EXTT6=
EXTT7=
EXTT8=
EXTT9=
EXTT10=
EXTT11=
EXTT12=
PLAYORDER=
